<svg width="40" height="48" viewBox="0 0 40 48" fill="none" xmlns="http://www.w3.org/2000/svg">
<path d="M29.9532 40.248C27.9616 42.206 25.5274 44.252 22.5843 46.386C21.168 47.398 19.265 47.398 17.8487 46.386C14.9277 44.274 12.5157 42.206 10.5462 40.27L7.5367 37.014C5.63362 34.748 4.30589 32.68 3.33222 30.92C-0.385422 24.1 0.853791 16.862 0.853791 16.862C2.31429 7.512 10.5462 0.34 20.3272 0.406C26.6781 0.45 32.2988 3.508 35.8395 8.216L27.519 13.76C25.6602 11.538 22.8056 10.174 19.6412 10.35C14.7728 10.614 10.856 14.574 10.6569 19.414C10.4356 24.826 14.7728 29.292 20.1944 29.292C23.1375 29.292 25.7708 27.972 27.519 25.882C27.9173 25.398 28.2714 24.892 28.5812 24.342H25.2619L20.1944 20.03L24.7529 15.74H39.2694C39.4686 16.642 39.6014 17.544 39.6677 18.468C39.6677 18.468 39.9997 23.484 38.5834 27.378C37.8753 29.622 36.3484 32.988 32.9627 37.014L29.9532 40.248Z" fill="url(#paint0_linear)"/>
<defs>
<linearGradient id="paint0_linear" x1="0.67581" y1="23.7594" x2="39.7106" y2="23.7594" gradientUnits="userSpaceOnUse">
<stop stop-color="#00BBFE"/>
<stop offset="1" stop-color="#0B66BF"/>
</linearGradient>
</defs>
</svg>
