<svg width="145" height="48" viewBox="0 0 145 48" fill="none" xmlns="http://www.w3.org/2000/svg">
<path d="M30.2211 40.5093C28.2184 42.497 25.7706 44.574 22.811 46.7403C21.3869 47.7676 19.4732 47.7676 18.049 46.7403C15.1117 44.5963 12.6862 42.497 10.7057 40.5316L7.67939 37.2263C5.76568 34.926 4.43053 32.8266 3.45142 31.04C-0.286988 24.1166 0.959147 16.769 0.959147 16.769C2.42781 7.27732 10.7057 -0.00333937 20.5413 0.0636606C26.9277 0.108327 32.5799 3.21266 36.1403 7.99199L27.7733 13.62C25.9041 11.3643 23.0336 9.97965 19.8515 10.1583C14.9559 10.4263 11.0173 14.4463 10.817 19.3596C10.5945 24.8536 14.9559 29.3873 20.4078 29.3873C23.3674 29.3873 26.0154 28.0473 27.7733 25.9256C28.1739 25.4343 28.5299 24.9206 28.8415 24.3623H25.5036L20.4078 19.985L24.9918 15.63H39.5894C39.7897 16.5456 39.9232 17.4613 39.9899 18.3993C39.9899 18.3993 40.3237 23.4913 38.8996 27.4443C38.1875 29.7223 36.6521 33.1393 33.2474 37.2263L30.2211 40.5093Z" fill="url(#paint0_linear)"/>
<path d="M50.582 38.6111C49.2691 38.6111 48.1565 38.2091 47.2664 37.3827C46.3763 36.5787 45.909 35.5067 45.8645 34.2114V23.268H50.5375V32.4917C50.582 33.1394 50.7378 33.6531 51.0493 34.0551C51.3386 34.4571 51.8282 34.6357 52.518 34.6357C53.2078 34.6357 53.8086 34.4124 54.2982 33.9211C54.81 33.4521 55.1883 32.8044 55.4776 32.0004C55.7446 31.1964 55.9003 30.2584 55.9003 29.231V23.268H60.5734V37.8964H56.3454L55.9671 35.2164L56.0339 35.5067C55.7001 36.1097 55.2773 36.6457 54.7655 37.1147C54.2537 37.5837 53.6528 37.9411 52.9408 38.2091C52.2287 38.4771 51.4499 38.6111 50.582 38.6111Z" fill="#0B66BF"/>
<path d="M69.6078 23.268L69.9861 25.881L69.9193 25.6577C70.4312 24.742 71.1432 24.005 72.1001 23.4243C73.0569 22.8437 74.1696 22.5757 75.5492 22.5757C76.9289 22.5757 78.086 22.9777 78.9983 23.804C79.9107 24.6304 80.4002 25.68 80.4225 26.9753V37.9187H75.7495V28.695C75.7272 28.0473 75.5492 27.5337 75.2377 27.1317C74.9039 26.752 74.3698 26.551 73.6132 26.551C72.9012 26.551 72.2781 26.7967 71.744 27.2657C71.21 27.7347 70.7872 28.3823 70.5202 29.164C70.2309 29.968 70.0751 30.906 70.0751 31.9557V37.9187H65.4021V23.2903H69.6078V23.268Z" fill="#0B66BF"/>
<path d="M85.0955 18.0867C85.0955 17.3944 85.3625 16.836 85.9188 16.367C86.4529 15.9204 87.0537 15.697 87.6767 15.697C88.2998 15.697 88.8784 15.9204 89.3902 16.367C89.902 16.8137 90.169 17.3944 90.169 18.0867C90.169 18.779 89.902 19.3374 89.3902 19.784C88.8561 20.2307 88.2998 20.4317 87.6767 20.4317C87.0537 20.4317 86.4751 20.2084 85.9188 19.784C85.3625 19.3374 85.0955 18.779 85.0955 18.0867ZM85.2067 23.268H89.8797V37.8963H85.2067V23.268Z" fill="#0B66BF"/>
<path d="M119.387 25.613C119.387 23.9157 119.698 22.3077 120.344 20.789C120.989 19.2704 121.879 17.9304 123.036 16.7467C124.171 15.563 125.506 14.6474 127.019 13.9774C128.532 13.3074 130.157 12.9724 131.893 12.9724C133.606 12.9724 135.208 13.3074 136.744 13.9774C138.257 14.6474 139.592 15.563 140.771 16.7467C141.951 17.9304 142.841 19.2704 143.508 20.789C144.154 22.3077 144.487 23.9157 144.487 25.613C144.487 27.355 144.154 28.9854 143.508 30.504C142.841 32.0227 141.951 33.3627 140.771 34.5017C139.592 35.663 138.257 36.5564 136.744 37.204C135.23 37.8517 133.606 38.1867 131.893 38.1867C130.157 38.1867 128.532 37.874 127.019 37.204C125.506 36.5564 124.171 35.663 123.036 34.5017C121.879 33.3627 120.989 32.0227 120.344 30.504C119.698 28.9854 119.387 27.355 119.387 25.613ZM124.394 25.613C124.394 26.7074 124.594 27.7347 124.972 28.6727C125.35 29.633 125.907 30.4594 126.597 31.1964C127.309 31.9334 128.11 32.4917 129.044 32.8937C129.957 33.2957 130.98 33.4967 132.071 33.4967C133.116 33.4967 134.096 33.2957 134.986 32.8937C135.876 32.4917 136.677 31.9334 137.344 31.1964C138.012 30.4817 138.524 29.633 138.902 28.6727C139.28 27.7347 139.458 26.7074 139.458 25.613C139.458 24.4964 139.258 23.469 138.88 22.4864C138.479 21.526 137.945 20.6773 137.278 19.9627C136.588 19.248 135.809 18.6673 134.897 18.2653C133.984 17.8633 133.005 17.6624 131.937 17.6624C130.869 17.6624 129.868 17.8633 128.955 18.2653C128.043 18.6673 127.242 19.2257 126.552 19.9627C125.862 20.6997 125.328 21.526 124.95 22.4864C124.572 23.469 124.394 24.4964 124.394 25.613Z" fill="#0B66BF"/>
<path d="M115.64 35.254C115.352 35.562 114.888 35.87 114.29 36.2C113.671 36.53 112.963 36.816 112.144 37.08C111.325 37.344 110.506 37.564 109.665 37.718C108.824 37.894 108.028 37.96 107.275 37.96C105.284 37.96 103.491 37.674 101.898 37.08C100.305 36.508 98.9329 35.694 97.8043 34.638C96.6757 33.604 95.8127 32.35 95.2152 30.92C94.6178 29.49 94.3301 27.928 94.3301 26.234C94.3301 24.012 94.662 22.076 95.348 20.448C96.0119 18.82 96.9413 17.434 98.1141 16.356C99.2869 15.278 100.615 14.464 102.119 13.936C103.624 13.408 105.217 13.144 106.877 13.144C108.448 13.144 109.887 13.32 111.192 13.65C112.498 14.002 113.604 14.42 114.512 14.926L112.963 19.392C112.564 19.172 112.033 18.952 111.369 18.732C110.705 18.512 110.019 18.336 109.333 18.182C108.647 18.05 108.05 17.962 107.497 17.962C106.169 17.962 104.996 18.138 103.978 18.468C102.96 18.798 102.097 19.304 101.411 19.964C100.703 20.624 100.194 21.438 99.8402 22.428C99.4861 23.418 99.3091 24.54 99.3091 25.838C99.3091 26.982 99.5082 28.016 99.9065 28.918C100.305 29.842 100.858 30.612 101.588 31.25C102.296 31.888 103.159 32.372 104.133 32.702C105.107 33.032 106.213 33.208 107.408 33.208C108.094 33.208 108.714 33.164 109.311 33.054C109.887 32.966 110.373 32.79 110.772 32.57V29.6H106.567V24.98H115.662V35.254H115.64Z" fill="#0B66BF"/>
<defs>
<linearGradient id="paint0_linear" x1="0.780171" y1="23.7709" x2="40.033" y2="23.7709" gradientUnits="userSpaceOnUse">
<stop stop-color="#00BBFE"/>
<stop offset="1" stop-color="#0B66BF"/>
</linearGradient>
</defs>
</svg>
